#!OML:ASF X:\für Bonn\!DataBase\2005_08_10_Bjorn_Final\c3d\bjorn.ASF
:FULLY-SPECIFIED
:DEGREES
326
root 2.08494 18.5253 3.63719 -182.616 18.7725 180.961
lowerback -0.162417 2.50119 4.07194
upperback 10.033 4.27466 -2.06531
thorax 11.293 2.96507 -3.99057
lowerneck -3.52961 1.2672 4.3965
upperneck 22.0963 4.1965 -5.94396
head 7.5443 2.45644 -2.30276
rclavicle 5.96354e-016 1.39149e-014
rhumerus -398.101 -0.614493 268.923
rradius 62.1861
rwrist -3.00487
rhand -11.3018 7.78714
rfingers 7.12502
rthumb 14.7298 -21.6695
lclavicle 5.96354e-016 1.39149e-014
lhumerus -45.0584 2.92988 77.5772
lradius 40.5049
lwrist 35.2954
lhand -42.0819 -7.40345
lfingers 7.12502
lthumb -14.9741 22.0352
rfemur 2.28857 -1.97759 12.7713
rtibia 30.1511
rfoot -18.9866 27.543
rtoes 4.47369
lfemur -22.9838 -6.04302 -2.91954
ltibia 32.1361
lfoot 0.181223 -7.85532
ltoes -18.8979
327
root 2.10979 18.5539 3.74652 -182.392 18.4443 180.655
lowerback -0.0551925 2.44298 3.88587
upperback 10.0381 4.22478 -2.13365
thorax 11.217 2.93037 -3.97167
lowerneck -3.41269 1.20278 4.35534
upperneck 22.3156 4.20814 -6.05829
head 7.59723 2.46776 -2.3331
rclavicle -2.87244e-014 3.1408e-014
rhumerus -399.619 -0.919696 269.394
rradius 62.9054
rwrist -3.20291
rhand -11.8354 7.99636
rfingers 7.12502
rthumb 14.2156 -21.4972
lclavicle -2.87244e-014 3.1408e-014
lhumerus -46.2862 2.15228 77.247
lradius 40.9734
lwrist 35.2259
lhand -42.0316 -8.38596
lfingers 7.12502
lthumb -14.9256 21.0563
rfemur 1.64179 -2.16682 12.72
rtibia 30.201
rfoot -19.1877 27.2067
rtoes 4.4622
lfemur -23.37 -5.88124 -3.09545
ltibia 31.3753
lfoot 1.1538 -7.80938
ltoes -18.3886
328
root 2.1327 18.5843 3.85684 -182.096 18.1187 180.367
lowerback -0.020236 2.39913 3.73021
upperback 10.033 4.18653 -2.2041
thorax 11.1781 2.90289 -3.96708
lowerneck -3.28994 1.12758 4.29517
upperneck 22.4871 4.18678 -6.12805
head 7.63039 2.4633 -2.34827
rclavicle 1.86858e-014 -1.39149e-014
rhumerus -401.057 -1.19645 269.851
rradius 63.6853
rwrist -3.49834
rhand -12.2893 8.0305
rfingers 7.12502
rthumb 13.7782 -21.4933
lclavicle 1.86858e-014 -1.39149e-014
lhumerus -47.4591 1.25995 76.9977
lradius 41.526
lwrist 35.0637
lhand -41.8386 -9.34443
lfingers 7.12502
lthumb -14.7397 20.1115
rfemur 0.904395 -2.38343 12.6772
rtibia 30.2707
rfoot -19.3315 26.8897
rtoes 4.44115
lfemur -23.8279 -5.67498 -3.26446
ltibia 30.6274
lfoot 2.10142 -7.65564
ltoes -17.4483
329
root 2.15497 18.6148 3.96845 -181.792 17.7692 180.099
lowerback 0.0297056 2.35167 3.59375
upperback 10.0044 4.13892 -2.27832
thorax 11.1042 2.87046 -3.97992
lowerneck -3.09387 1.05676 4.27963
upperneck 22.5996 4.15117 -6.15199
head 7.62995 2.45996 -2.3578
rclavicle -1.94809e-014 -1.82882e-014
rhumerus -402.45 -1.44482 270.27
rradius 64.534
rwrist -4.02673
rhand -12.5576 7.79202
rfingers 7.12502
rthumb 13.5196 -21.7491
lclavicle -1.94809e-014 -1.82882e-014
lhumerus -48.6315 0.285645 76.797
lradius 42.1506
lwrist 34.8358
lhand -41.2098 -10.1339
lfingers 7.12502
lthumb -14.1338 19.3653
rfemur 0.157052 -2.54153 12.6697
rtibia 30.352
rfoot -19.4431 26.5594
rtoes 4.48018
lfemur -24.2957 -5.38388 -3.45264
ltibia 29.9119
lfoot 2.95993 -7.52488
ltoes -16.3443
330
root 2.1768 18.6441 4.07958 -181.464 17.4142 179.87
lowerback 0.0487494 2.3037 3.47367
upperback 9.98199 4.08437 -2.31751
thorax 11.0537 2.83389 -3.96276
lowerneck -2.83573 0.98148 4.25879
upperneck 22.608 4.10761 -6.23015
head 7.58423 2.44695 -2.3856
rclavicle 1.51076e-014 -5.96354e-015
rhumerus -403.727 -1.67011 270.724
rradius 65.2732
rwrist -4.46016
rhand -12.8282 7.56385
rfingers 7.12502
rthumb 13.2588 -21.9944
lclavicle 1.51076e-014 -5.96354e-015
lhumerus -49.8121 -0.668982 76.6721
lradius 42.8779
lwrist 34.5174
lhand -40.4944 -10.7737
lfingers 7.12502
lthumb -13.4443 18.7724
rfemur -0.608962 -2.74549 12.6944
rtibia 30.4405
rfoot -19.5803 26.1975
rtoes 4.29146
lfemur -24.773 -5.07504 -3.62079
ltibia 29.245
lfoot 3.68174 -7.27954
ltoes -14.9558
331
root 2.19827 18.6729 4.19086 -181.19 17.0151 179.626
lowerback 0.0947888 2.24749 3.34525
upperback 9.97932 4.02685 -2.36981
thorax 11.0099 2.79892 -3.95578
lowerneck -2.53778 0.903607 4.30468
upperneck 22.5263 4.03887 -6.31794
head 7.50133 2.42426 -2.43026
rclavicle 7.45443e-015 7.95139e-016
rhumerus -404.889 -1.90276 271.137
rradius 65.9273
rwrist -4.87998
rhand -13.1217 7.33439
rfingers 7.12502
rthumb 12.9759 -22.2421
lclavicle 7.45443e-015 7.95139e-016
lhumerus -50.9861 -1.69818 76.5902
lradius 43.719
lwrist 34.1576
lhand -39.783 -11.16
lfingers 7.12502
lthumb -12.7586 18.4302
rfemur -1.31476 -2.92693 12.7052
rtibia 30.5401
rfoot -19.7471 25.7891
rtoes 4.04175
lfemur -25.2057 -4.76216 -3.84927
ltibia 28.6381
lfoot 4.27045 -6.98046
ltoes -13.2136
332
root 2.21931 18.6986 4.30185 -180.967 16.6256 179.39
lowerback 0.168839 2.19159 3.22257
upperback 9.99776 3.97478 -2.41793
thorax 10.9744 2.76957 -3.94731
lowerneck -2.25 0.817136 4.41804
upperneck 22.4443 3.96109 -6.45587
head 7.42142 2.39832 -2.50339
rclavicle -4.68138e-014 2.70347e-014
rhumerus -405.925 -2.13876 271.538
rradius 66.5192
rwrist -5.32314
rhand -13.3618 6.96012
rfingers 7.12502
rthumb 12.7444 -22.6309
lclavicle -4.68138e-014 2.70347e-014
lhumerus -52.0619 -2.76554 76.5751
lradius 44.5098
lwrist 33.684
lhand -39.2063 -11.2644
lfingers 7.12502
lthumb -12.2026 18.3597
rfemur -1.96739 -3.0468 12.721
rtibia 30.6513
rfoot -19.8599 25.3894
rtoes 3.93429
lfemur -25.584 -4.5782 -4.07146
ltibia 28.1142
lfoot 4.64415 -6.48816
ltoes -11.374
333
root 2.23951 18.7214 4.41235 -180.823 16.2315 179.158
lowerback 0.298556 2.12711 3.09835
upperback 10.0505 3.91894 -2.44938
thorax 10.9428 2.74136 -3.92153
lowerneck -2.00596 0.743115 4.46946
upperneck 22.3845 3.88992 -6.52042
head 7.35509 2.37481 -2.54058
rclavicle -1.08338e-014 1.03368e-014
rhumerus -406.857 -2.35565 271.95
rradius 67.0792
rwrist -5.76303
rhand -13.5253 6.41812
rfingers 7.12502
rthumb 12.5868 -23.1827
lclavicle -1.08338e-014 1.03368e-014
lhumerus -52.9807 -3.77651 76.6336
lradius 45.1598
lwrist 33.0481
lhand -38.7918 -11.1925
lfingers 7.12502
lthumb -11.8028 18.4549
rfemur -2.52961 -3.09933 12.7438
rtibia 30.7688
rfoot -19.9178 24.9342
rtoes 3.78025
lfemur -25.8802 -4.61333 -4.2775
ltibia 27.6953
lfoot 4.69328 -5.75528
ltoes -9.76056
334
root 2.259 18.7418 4.52217 -180.737 15.8404 178.913
lowerback 0.457587 2.05013 2.9356
upperback 10.1235 3.85269 -2.47237
thorax 10.9119 2.70641 -3.86649
lowerneck -1.78066 0.688444 4.53369
upperneck 22.354 3.84524 -6.56832
head 7.30337 2.36637 -2.5723
rclavicle 8.94531e-015 1.47101e-014
rhumerus -407.724 -2.50492 272.348
rradius 67.5427
rwrist -6.19306
rhand -13.6851 6.04083
rfingers 7.12502
rthumb 12.4327 -23.5694
lclavicle 8.94531e-015 1.47101e-014
lhumerus -53.7469 -4.75196 76.755
lradius 45.6362
lwrist 32.3965
lhand -38.581 -10.8616
lfingers 7.12502
lthumb -11.5996 18.7973
rfemur -3.03291 -3.14527 12.737
rtibia 30.8916
rfoot -19.9424 24.4809
rtoes 3.62669
lfemur -26.1056 -4.7883 -4.50476
ltibia 27.4002
lfoot 4.41272 -4.96313
ltoes -9.00584
335
root 2.2774 18.7633 4.63037 -180.68 15.4769 178.683
lowerback 0.626134 1.9756 2.7855
upperback 10.2073 3.78958 -2.48061
thorax 10.8883 2.6743 -3.80209
lowerneck -1.53482 0.628696 4.56783
upperneck 22.3002 3.79458 -6.61889
head 7.23964 2.3526 -2.6002
rclavicle -2.46493e-014 1.78906e-014
rhumerus -408.583 -2.6269 272.75
rradius 67.9319
rwrist -6.51895
rhand -13.9927 5.87309
rfingers 7.12502
rthumb 12.1361 -23.7549
lclavicle -2.46493e-014 1.78906e-014
lhumerus -54.489 -5.81807 77.0263
lradius 46.1231
lwrist 31.8423
lhand -38.5343 -10.1053
lfingers 7.12502
lthumb -11.5545 19.5562
rfemur -3.49701 -3.19587 12.725
rtibia 31.0147
rfoot -19.9283 24.0809
rtoes 3.35853
lfemur -26.2646 -4.86937 -4.7793
ltibia 27.2361
lfoot 3.86682 -4.37119
ltoes -9.76717
336
root 2.29451 18.7825 4.73835 -180.64 15.106 178.468
lowerback 0.81167 1.88936 2.63318
upperback 10.285 3.70903 -2.48288
thorax 10.8453 2.63243 -3.73241
lowerneck -1.31034 0.565643 4.65235
upperneck 22.3042 3.75253 -6.7015
head 7.20032 2.34623 -2.64647
rclavicle 3.37934e-015 -3.08116e-014
rhumerus -409.43 -2.69573 273.117
rradius 68.2088
rwrist -6.61774
rhand -14.4538 6.05189
rfingers 7.12502
rthumb 11.6915 -23.6019
lclavicle 3.37934e-015 -3.08116e-014
lhumerus -55.1964 -6.99113 77.4403
lradius 46.5766
lwrist 31.5568
lhand -38.7228 -9.23918
lfingers 7.12502
lthumb -11.7363 20.412
rfemur -3.93688 -3.22912 12.719
rtibia 31.1412
rfoot -19.8643 23.6665
rtoes 3.19119
lfemur -26.3879 -4.96647 -5.06663
ltibia 27.1889
lfoot 3.1533 -3.80059
ltoes -11.2062
337
root 2.30923 18.8005 4.84499 -180.601 14.7615 178.266
lowerback 0.983722 1.79277 2.47238
upperback 10.3609 3.61083 -2.46898
thorax 10.8054 2.57934 -3.64131
lowerneck -1.11662 0.520124 4.72559
upperneck 22.344 3.74335 -6.79512
head 7.18028 2.35396 -2.69195
rclavicle -4.65156e-014 2.48481e-014
rhumerus -410.225 -2.65354 273.468
rradius 68.3699
rwrist -6.59318
rhand -15.0366 6.47262
rfingers 7.12502
rthumb 11.1294 -23.2122
lclavicle -4.65156e-014 2.48481e-014
lhumerus -55.8437 -8.26212 78.0716
lradius 46.8199
lwrist 31.4621
lhand -38.9696 -8.5162
lfingers 7.12502
lthumb -11.9743 21.1213
rfemur -4.37983 -3.27854 12.7073
rtibia 31.2778
rfoot -19.7841 23.3043
rtoes 3.04134
lfemur -26.5 -5.07255 -5.35934
ltibia 27.2376
lfoot 2.38734 -3.20691
ltoes -12.3298
338
root 2.3233 18.817 4.95169 -180.589 14.4069 178.081
lowerback 1.17051 1.68809 2.33088
upperback 10.4502 3.50695 -2.4741
thorax 10.7752 2.52864 -3.58172
lowerneck -0.937625 0.479657 4.8776
upperneck 22.3603 3.73166 -6.91338
head 7.15637 2.36264 -2.7592
rclavicle -1.88845e-014 -6.75868e-015
rhumerus -410.926 -2.55731 273.794
rradius 68.4533
rwrist -6.50358
rhand -15.6005 7.11874
rfingers 7.12502
rthumb 10.5855 -22.5947
lclavicle -1.88845e-014 -6.75868e-015
lhumerus -56.4489 -9.78723 78.8806
lradius 46.8937
lwrist 31.6431
lhand -38.8856 -7.91969
lfingers 7.12502
lthumb -11.8933 21.7225
rfemur -4.79678 -3.32023 12.7053
rtibia 31.4337
rfoot -19.762 22.9271
rtoes 2.7664
lfemur -26.5643 -5.2283 -5.64423
ltibia 27.3559
lfoot 1.56044 -2.56407
ltoes -12.955
